<svg xmlns="http://www.w3.org/2000/svg" viewBox="0 0 1240 320" role="img" aria-labelledby="title desc">
  <title id="title">Shoppingmart Exports logo</title>
  <desc id="desc">Clean Shoppingmart Exports wordmark with an abstract export monogram.</desc>
  <defs>
    <style>
      .wordmark {
        font-family: Inter, Poppins, Montserrat, Arial, Helvetica, sans-serif;
        font-size: 88px;
        font-weight: 800;
        letter-spacing: -2px;
      }
      .submark {
        font-family: Inter, Poppins, Montserrat, Arial, Helvetica, sans-serif;
        font-size: 40px;
        font-weight: 700;
        letter-spacing: 10px;
      }
    </style>
    <mask id="s-cutout" maskUnits="userSpaceOnUse" x="-10" y="0" width="260" height="260">
      <rect x="-10" y="0" width="260" height="260" fill="#fff"/>
      <path d="M6 204 170 48" fill="none" stroke="#000" stroke-width="32" stroke-linecap="round"/>
    </mask>
  </defs>

  <g transform="translate(56 56)">
    <path fill="#0D4C6A" mask="url(#s-cutout)" d="M44 12H198L157 55H84c-19 0-33 11-37 27h92c46 0 78 29 78 70 0 49-40 84-95 84H0l42-44h81c25 0 41-14 44-34H75c-46 0-77-29-77-69C-2 45 35 12 44 12Z"/>
    <path fill="#E85D3F" d="M133 84 222 40 200 128l-21-38-128 74-11-20 132-76-39 16Z"/>
  </g>

  <text x="312" y="156" fill="#0D4C6A" class="wordmark">Shoppingmart</text>

  <g transform="translate(556 204)">
    <line x1="0" y1="16" x2="88" y2="16" stroke="#0D9488" stroke-width="4" stroke-linecap="round"/>
    <text x="116" y="30" fill="#C99228" class="submark">EXPORTS</text>
    <line x1="366" y1="16" x2="454" y2="16" stroke="#0D9488" stroke-width="4" stroke-linecap="round"/>
  </g>
</svg>
